                                                                        S      1
,,8HBoard v1,8HBoard v1,7Hunknown,7Hunknown,32,38,7,99,15,,1.,2,2HMM,1, G      1
0.08,15H20160220.190229,0.01,10000.,7Hunknown,7Hunknown,11,0,;          G      2
     186       1                                                00000000D      1
     186            -263       1       0                               0D      2
     514       2                                                00010000D      3
     514                       2       1                               0D      4
     510       4                                                00010000D      5
     510            -263       1       1                               0D      6
     510       5                                                00010000D      7
     510            -263       1       1                               0D      8
     510       6                                                00010000D      9
     510            -263       1       1                               0D     10
     510       7                                                00010000D     11
     510            -263       1       1                               0D     12
     510       8                                                00010000D     13
     510            -263       1       1                               0D     14
     510       9                                                00010000D     15
     510            -263       1       1                               0D     16
     510      10                                                00010000D     17
     510            -263       1       1                               0D     18
     510      11                                                00010000D     19
     510            -263       1       1                               0D     20
     510      12                                                00010000D     21
     510            -263       1       1                               0D     22
     510      13                                                00010000D     23
     510            -263       1       1                               0D     24
     510      14                                                00010000D     25
     510            -263       1       1                               0D     26
     510      15                                                00010000D     27
     510            -263       1       1                               0D     28
     510      16                                                00010000D     29
     510            -263       1       1                               0D     30
     510      17                                                00010000D     31
     510            -263       1       1                               0D     32
     510      18                                                00010000D     33
     510            -263       1       1                               0D     34
     510      19                                                00010000D     35
     510            -263       1       1                               0D     36
     510      20                                                00010000D     37
     510            -263       1       1                               0D     38
     510      21                                                00010000D     39
     510            -263       1       1                               0D     40
     510      22                                                00010000D     41
     510            -263       1       1                               0D     42
     510      23                                                00010000D     43
     510            -263       1       1                               0D     44
     510      24                                                00010000D     45
     510            -263       1       1                               0D     46
     510      25                                                00010000D     47
     510            -263       1       1                               0D     48
     508      26                                                00010000D     49
     508                       1       1                               0D     50
     508      27                                                00010000D     51
     508                       1       1                               0D     52
     508      28                                                00010000D     53
     508                       1       1                               0D     54
     508      29                                                00010000D     55
     508                       1       1                               0D     56
     508      30                                                00010000D     57
     508                       1       1                               0D     58
     508      31                                                00010000D     59
     508                       1       1                               0D     60
     508      32                                                00010000D     61
     508                       1       1                               0D     62
     508      33                                                00010000D     63
     508                       1       1                               0D     64
     508      34                                                00010000D     65
     508                       1       1                               0D     66
     508      35                                                00010000D     67
     508                       1       1                               0D     68
     508      36                                                00010000D     69
     508                       1       1                               0D     70
     508      37                                                00010000D     71
     508                       1       1                               0D     72
     508      38                                                00010000D     73
     508                       1       1                               0D     74
     508      39                                                00010000D     75
     508                       1       1                               0D     76
     508      40                                                00010000D     77
     508                       1       1                               0D     78
     508      41                                                00010000D     79
     508                       1       1                               0D     80
     508      42                                                00010000D     81
     508                       1       1                               0D     82
     508      43                                                00010000D     83
     508                       1       1                               0D     84
     508      44                                                00010000D     85
     508                       5       1                               0D     86
     508      49                                                00010000D     87
     508                       5       1                               0D     88
     508      54                                                00010000D     89
     508                       1       1                               0D     90
     508      55                                                00010000D     91
     508                       1       1                               0D     92
     126      56                                                00010000D     93
     126       0               2       0                               0D     94
     126      58                                                00010000D     95
     126       0               2       0                               0D     96
     126      60                                                00010000D     97
     126       0               2       0                               0D     98
     126      62                                                00010000D     99
     126       0               2       0                               0D    100
     126      64                                                00010000D    101
     126       0               2       0                               0D    102
     126      66                                                00010000D    103
     126       0               2       0                               0D    104
     126      68                                                00010000D    105
     126       0               2       0                               0D    106
     126      70                                                00010000D    107
     126       0               2       0                               0D    108
     126      72                                                00010000D    109
     126       0               2       0                               0D    110
     126      74                                                00010000D    111
     126       0               2       0                               0D    112
     126      76                                                00010000D    113
     126       0               3       0                               0D    114
     126      79                                                00010000D    115
     126       0               2       0                               0D    116
     126      81                                                00010000D    117
     126       0               3       0                               0D    118
     126      84                                                00010000D    119
     126       0               4       0                               0D    120
     126      88                                                00010000D    121
     126       0               2       0                               0D    122
     126      90                                                00010000D    123
     126       0               4       0                               0D    124
     126      94                                                00010000D    125
     126       0               2       0                               0D    126
     126      96                                                00010000D    127
     126       0               2       0                               0D    128
     126      98                                                00010000D    129
     126       0               2       0                               0D    130
     126     100                                                00010000D    131
     126       0               2       0                               0D    132
     126     102                                                00010000D    133
     126       0               2       0                               0D    134
     126     104                                                00010000D    135
     126       0               2       0                               0D    136
     126     106                                                00010000D    137
     126       0               2       0                               0D    138
     126     108                                                00010000D    139
     126       0               2       0                               0D    140
     126     110                                                00010000D    141
     126       0               2       0                               0D    142
     126     112                                                00010000D    143
     126       0               3       0                               0D    144
     126     115                                                00010000D    145
     126       0               2       0                               0D    146
     126     117                                                00010000D    147
     126       0               3       0                               0D    148
     126     120                                                00010000D    149
     126       0               2       0                               0D    150
     126     122                                                00010000D    151
     126       0               2       0                               0D    152
     126     124                                                00010000D    153
     126       0               2       0                               0D    154
     126     126                                                00010000D    155
     126       0               2       0                               0D    156
     126     128                                                00010000D    157
     126       0               2       0                               0D    158
     126     130                                                00010000D    159
     126       0               2       0                               0D    160
     126     132                                                00010000D    161
     126       0               2       0                               0D    162
     126     134                                                00010000D    163
     126       0               2       0                               0D    164
     126     136                                                00010000D    165
     126       0               2       0                               0D    166
     126     138                                                00010000D    167
     126       0               2       0                               0D    168
     126     140                                                00010000D    169
     126       0               4       0                               0D    170
     126     144                                                00010000D    171
     126       0               2       0                               0D    172
     126     146                                                00010000D    173
     126       0               4       0                               0D    174
     126     150                                                00010000D    175
     126       0               3       0                               0D    176
     126     153                                                00010000D    177
     126       0               2       0                               0D    178
     126     155                                                00010000D    179
     126       0               2       0                               0D    180
     126     157                                                00010000D    181
     126       0               2       0                               0D    182
     126     159                                                00010000D    183
     126       0               2       0                               0D    184
     126     161                                                00010000D    185
     126       0               2       0                               0D    186
     126     163                                                00010000D    187
     126       0               2       0                               0D    188
     126     165                                                00010000D    189
     126       0               2       0                               0D    190
     126     167                                                00010000D    191
     126       0               2       0                               0D    192
     126     169                                                00010000D    193
     126       0               2       0                               0D    194
     126     171                                                00010000D    195
     126       0               2       0                               0D    196
     126     173                                                00010000D    197
     126       0               2       0                               0D    198
     126     175                                                00010000D    199
     126       0               3       0                               0D    200
     126     178                                                00010000D    201
     126       0               2       0                               0D    202
     126     180                                                00010000D    203
     126       0               2       0                               0D    204
     126     182                                                00010000D    205
     126       0               2       0                               0D    206
     126     184                                                00010000D    207
     126       0               2       0                               0D    208
     126     186                                                00010000D    209
     126       0               2       0                               0D    210
     126     188                                                00010000D    211
     126       0               2       0                               0D    212
     128     190                                                00010000D    213
     128       0    -263       4       0                               0D    214
     128     194                                                00010000D    215
     128       0    -263       4       0                               0D    216
     128     198                                                00010000D    217
     128       0    -263       4       0                               0D    218
     128     202                                                00010000D    219
     128       0    -263       4       0                               0D    220
     128     206                                                00010000D    221
     128       0    -263       6       0                               0D    222
     128     212                                                00010000D    223
     128       0    -263       4       0                               0D    224
     128     216                                                00010000D    225
     128       0    -263       4       0                               0D    226
     128     220                                                00010000D    227
     128       0    -263       4       0                               0D    228
     128     224                                                00010000D    229
     128       0    -263       5       0                               0D    230
     128     229                                                00010000D    231
     128       0    -263       4       0                               0D    232
     128     233                                                00010000D    233
     128       0    -263       4       0                               0D    234
     128     237                                                00010000D    235
     128       0    -263       4       0                               0D    236
     128     241                                                00010000D    237
     128       0    -263       6       0                               0D    238
     128     247                                                00010000D    239
     128       0    -263       4       0                               0D    240
     128     251                                                00010000D    241
     128       0    -263       4       0                               0D    242
     128     255                                                00010000D    243
     128       0    -263       4       0                               0D    244
     128     259                                                00010000D    245
     128       0    -263       4       0                               0D    246
     128     263                                                00010000D    247
     128       0    -263       4       0                               0D    248
     128     267                                                00010000D    249
     128       0    -263       4       0                               0D    250
     128     271                                                00010000D    251
     128       0    -263       4       0                               0D    252
     128     275                                                00010000D    253
     128       0    -263       4       0                               0D    254
     128     279                                                00010000D    255
     128       0    -263       4       0                               0D    256
     502     283                                                00010000D    257
     502                      15       1                               0D    258
     504     298                                                00010001D    259
     504                      17       1                               0D    260
     406     315                                                00000000D    261
     406                       1      15                               0D    262
     314     316                                                00000200D    263
     314                       2       0                               0D    264
186,3,1,0,0,1,261;                                                     1P      1
514,22,5,1,7,1,9,1,11,1,13,1,15,1,17,1,19,1,21,1,23,1,25,1,27,1,       3P      2
29,1,31,1,33,1,35,1,37,1,39,1,41,1,43,1,45,1,47,1;                     3P      3
510,213,1,1,49;                                                        5P      4
510,215,1,1,51;                                                        7P      5
510,217,1,1,53;                                                        9P      6
510,219,1,1,55;                                                       11P      7
510,221,1,1,57;                                                       13P      8
510,223,1,1,59;                                                       15P      9
510,225,1,1,61;                                                       17P     10
510,227,1,1,63;                                                       19P     11
510,229,1,1,65;                                                       21P     12
510,231,1,1,67;                                                       23P     13
510,233,1,1,69;                                                       25P     14
510,235,1,1,71;                                                       27P     15
510,237,1,1,73;                                                       29P     16
510,239,1,1,75;                                                       31P     17
510,241,1,1,77;                                                       33P     18
510,243,1,1,79;                                                       35P     19
510,245,1,1,81;                                                       37P     20
510,247,1,1,83;                                                       39P     21
510,249,1,1,85;                                                       41P     22
510,251,1,1,87;                                                       43P     23
510,253,1,1,89;                                                       45P     24
510,255,1,1,91;                                                       47P     25
508,4,0,259,1,1,0,0,259,2,1,0,0,259,3,1,0,0,259,4,1,0;                49P     26
508,4,0,259,5,1,0,0,259,6,0,0,0,259,7,0,0,0,259,4,0,0;                51P     27
508,4,0,259,8,1,0,0,259,9,0,0,0,259,10,0,0,0,259,2,0,0;               53P     28
508,4,0,259,9,1,0,0,259,11,0,0,0,259,12,1,0,0,259,13,0,0;             55P     29
508,4,0,259,6,1,0,0,259,14,0,0,0,259,15,1,0,0,259,16,0,0;             57P     30
508,4,0,259,17,1,0,0,259,18,1,0,0,259,19,1,0,0,259,20,1,0;            59P     31
508,4,0,259,21,1,0,0,259,15,0,0,0,259,22,0,0,0,259,20,0,0;            61P     32
508,4,0,259,23,1,0,0,259,24,0,0,0,259,25,0,0,0,259,18,0,0;            63P     33
508,4,0,259,24,1,0,0,259,26,0,0,0,259,27,0,0,0,259,28,0,0;            65P     34
508,4,0,259,29,1,0,0,259,30,1,0,0,259,31,1,0,0,259,32,1,0;            67P     35
508,4,0,259,33,1,0,0,259,34,0,0,0,259,35,0,0,0,259,32,0,0;            69P     36
508,4,0,259,36,1,0,0,259,37,0,0,0,259,38,0,0,0,259,30,0,0;            71P     37
508,4,0,259,37,1,0,0,259,39,0,0,0,259,40,1,0,0,259,41,0,0;            73P     38
508,4,0,259,34,1,0,0,259,42,0,0,0,259,43,0,0,0,259,44,0,0;            75P     39
508,4,0,259,45,1,0,0,259,46,1,0,0,259,47,1,0,0,259,48,1,0;            77P     40
508,4,0,259,49,1,0,0,259,50,0,0,0,259,51,0,0,0,259,48,0,0;            79P     41
508,4,0,259,52,1,0,0,259,40,0,0,0,259,53,0,0,0,259,46,0,0;            81P     42
508,4,0,259,50,1,0,0,259,54,0,0,0,259,55,1,0,0,259,56,0,0;            83P     43
508,20,0,259,11,1,0,0,259,8,0,0,0,259,1,0,0,0,259,7,1,0,0,259,        85P     44
16,1,0,0,259,21,0,0,0,259,19,0,0,0,259,25,1,0,0,259,28,1,0,0,         85P     45
259,57,1,0,0,259,54,1,0,0,259,49,0,0,0,259,47,0,0,0,259,53,1,0,       85P     46
0,259,39,1,0,0,259,36,0,0,0,259,29,0,0,0,259,35,1,0,0,259,44,1,       85P     47
0,0,259,58,1,0;                                                       85P     48
508,20,0,259,26,1,0,0,259,23,0,0,0,259,17,0,0,0,259,22,1,0,0,         87P     49
259,14,1,0,0,259,5,0,0,0,259,3,0,0,0,259,10,1,0,0,259,13,1,0,0,       87P     50
259,59,1,0,0,259,42,1,0,0,259,33,0,0,0,259,31,0,0,0,259,38,1,0,       87P     51
0,259,41,1,0,0,259,52,0,0,0,259,45,0,0,0,259,51,1,0,0,259,56,1,       87P     52
0,0,259,60,1,0;                                                       87P     53
508,4,0,259,43,1,0,0,259,59,0,0,0,259,12,0,0,0,259,58,0,0;            89P     54
508,4,0,259,27,1,0,0,259,60,0,0,0,259,55,0,0,0,259,57,0,0;            91P     55
126,1,1,0,0,1,0,-0.25,-0.25,0.25,0.25,1.,1.,75.0118811353465,5.,      93P     56
-85.,80.0118811353465,5.,-85.,-0.25,0.25,0.,0.,0.;                    93P     57
126,1,1,0,0,1,0,-0.25,-0.25,0.25,0.25,1.,1.,80.0118811353465,5.,      95P     58
-85.,80.0118811353465,0.,-85.,-0.25,0.25,0.,0.,0.;                    95P     59
126,1,1,0,0,1,0,-0.25,-0.25,0.25,0.25,1.,1.,80.0118811353465,0.,      97P     60
-85.,75.0118811353465,0.,-85.,-0.25,0.25,0.,0.,0.;                    97P     61
126,1,1,0,0,1,0,-0.25,-0.25,0.25,0.25,1.,1.,75.0118811353465,0.,      99P     62
-85.,75.0118811353465,5.,-85.,-0.25,0.25,0.,0.,0.;                    99P     63
126,1,1,0,0,1,0,-0.25,-0.25,0.25,0.25,1.,1.,75.0118811353465,0.,     101P     64
-85.,75.0118811353465,0.,-80.,-0.25,0.25,0.,0.,0.;                   101P     65
126,1,1,0,0,1,0,-0.25,-0.25,0.25,0.25,1.,1.,75.0118811353465,5.,     103P     66
-80.,75.0118811353465,0.,-80.,-0.25,0.25,0.,0.,0.;                   103P     67
126,1,1,0,0,1,0,-0.25,-0.25,0.25,0.25,1.,1.,75.0118811353465,5.,     105P     68
-85.,75.0118811353465,5.,-80.,-0.25,0.25,0.,0.,0.;                   105P     69
126,1,1,0,0,1,0,-0.25,-0.25,0.25,0.25,1.,1.,80.0118811353465,5.,     107P     70
-85.,80.0118811353465,5.,-80.,-0.25,0.25,0.,0.,0.;                   107P     71
126,1,1,0,0,1,0,-0.25,-0.25,0.25,0.25,1.,1.,80.0118811353465,0.,     109P     72
-80.,80.0118811353465,5.,-80.,-0.25,0.25,0.,0.,0.;                   109P     73
126,1,1,0,0,1,0,-0.25,-0.25,0.25,0.25,1.,1.,80.0118811353465,0.,     111P     74
-85.,80.0118811353465,0.,-80.,-0.25,0.25,0.,0.,0.;                   111P     75
126,1,1,0,0,1,0,-4.5,-4.5,-3.50118811353465,-3.50118811353465,       113P     76
1.,1.,90.,5.,-80.,80.0118811353465,5.,-80.,-4.5,                     113P     77
-3.50118811353465,0.,0.,0.;                                          113P     78
126,1,1,0,0,1,0,-0.25,-0.25,0.25,0.25,1.,1.,90.,5.,-80.,90.,0.,      115P     79
-80.,-0.25,0.25,0.,0.,0.;                                            115P     80
126,1,1,0,0,1,0,3.50118811353465,3.50118811353465,4.5,4.5,1.,1.,     117P     81
80.0118811353465,0.,-80.,90.,0.,-80.,3.50118811353465,4.5,0.,0.,     117P     82
0.;                                                                  117P     83
126,1,1,0,0,1,0,-3.0027430673876,-3.0027430673876,                   119P     84
3.00118811353465,3.00118811353465,1.,1.,14.972569326124,0.,-80.,     119P     85
75.0118811353465,0.,-80.,-3.0027430673876,3.00118811353465,0.,       119P     86
0.,0.;                                                               119P     87
126,1,1,0,0,1,0,-0.25,-0.25,0.25,0.25,1.,1.,14.972569326124,0.,      121P     88
-80.,14.972569326124,5.,-80.,-0.25,0.25,0.,0.,0.;                    121P     89
126,1,1,0,0,1,0,-3.00118811353465,-3.00118811353465,                 123P     90
3.0027430673876,3.0027430673876,1.,1.,75.0118811353465,5.,-80.,      123P     91
14.972569326124,5.,-80.,-3.00118811353465,3.0027430673876,0.,0.,     123P     92
0.;                                                                  123P     93
126,1,1,0,0,1,0,-0.25,-0.25,0.25,0.25,1.,1.,14.972569326124,0.,      125P     94
-85.,9.97256932612402,0.,-85.,-0.25,0.25,0.,0.,0.;                   125P     95
126,1,1,0,0,1,0,-0.25,-0.25,0.25,0.25,1.,1.,9.97256932612402,0.,     127P     96
-85.,9.97256932612402,5.,-85.,-0.25,0.25,0.,0.,0.;                   127P     97
126,1,1,0,0,1,0,-0.25,-0.25,0.25,0.25,1.,1.,9.97256932612402,5.,     129P     98
-85.,14.972569326124,5.,-85.,-0.25,0.25,0.,0.,0.;                    129P     99
126,1,1,0,0,1,0,-0.25,-0.25,0.25,0.25,1.,1.,14.972569326124,5.,      131P    100
-85.,14.972569326124,0.,-85.,-0.25,0.25,0.,0.,0.;                    131P    101
126,1,1,0,0,1,0,-0.25,-0.25,0.25,0.25,1.,1.,14.972569326124,5.,      133P    102
-85.,14.972569326124,5.,-80.,-0.25,0.25,0.,0.,0.;                    133P    103
126,1,1,0,0,1,0,-0.25,-0.25,0.25,0.25,1.,1.,14.972569326124,0.,      135P    104
-85.,14.972569326124,0.,-80.,-0.25,0.25,0.,0.,0.;                    135P    105
126,1,1,0,0,1,0,-0.25,-0.25,0.25,0.25,1.,1.,9.97256932612402,0.,     137P    106
-85.,9.97256932612402,0.,-80.,-0.25,0.25,0.,0.,0.;                   137P    107
126,1,1,0,0,1,0,-0.25,-0.25,0.25,0.25,1.,1.,9.97256932612402,5.,     139P    108
-80.,9.97256932612402,0.,-80.,-0.25,0.25,0.,0.,0.;                   139P    109
126,1,1,0,0,1,0,-0.25,-0.25,0.25,0.25,1.,1.,9.97256932612402,5.,     141P    110
-85.,9.97256932612402,5.,-80.,-0.25,0.25,0.,0.,0.;                   141P    111
126,1,1,0,0,1,0,-4.5,-4.5,-3.5027430673876,-3.5027430673876,1.,      143P    112
1.,0.,0.,-80.,9.97256932612402,0.,-80.,-4.5,-3.5027430673876,0.,     143P    113
0.,0.;                                                               143P    114
126,1,1,0,0,1,0,-0.25,-0.25,0.25,0.25,1.,1.,0.,5.,-80.,0.,0.,        145P    115
-80.,-0.25,0.25,0.,0.,0.;                                            145P    116
126,1,1,0,0,1,0,3.5027430673876,3.5027430673876,4.5,4.5,1.,1.,       147P    117
9.97256932612402,5.,-80.,0.,5.,-80.,3.5027430673876,4.5,0.,0.,       147P    118
0.;                                                                  147P    119
126,1,1,0,0,1,0,-0.25,-0.25,0.25,0.25,1.,1.,80.0056047205465,5.,     149P    120
5.,75.0056047205465,5.,5.,-0.25,0.25,0.,0.,0.;                       149P    121
126,1,1,0,0,1,0,-0.25,-0.25,0.25,0.25,1.,1.,75.0056047205465,5.,     151P    122
5.,75.0056047205465,0.,5.,-0.25,0.25,0.,0.,0.;                       151P    123
126,1,1,0,0,1,0,-0.25,-0.25,0.25,0.25,1.,1.,75.0056047205465,0.,     153P    124
5.,80.0056047205465,0.,5.,-0.25,0.25,0.,0.,0.;                       153P    125
126,1,1,0,0,1,0,-0.25,-0.25,0.25,0.25,1.,1.,80.0056047205465,0.,     155P    126
5.,80.0056047205465,5.,5.,-0.25,0.25,0.,0.,0.;                       155P    127
126,1,1,0,0,1,0,-0.25,-0.25,0.25,0.25,1.,1.,80.0056047205465,0.,     157P    128
5.,80.0056047205465,0.,0.,-0.25,0.25,0.,0.,0.;                       157P    129
126,1,1,0,0,1,0,-0.25,-0.25,0.25,0.25,1.,1.,80.0056047205465,5.,     159P    130
0.,80.0056047205465,0.,0.,-0.25,0.25,0.,0.,0.;                       159P    131
126,1,1,0,0,1,0,-0.25,-0.25,0.25,0.25,1.,1.,80.0056047205465,5.,     161P    132
5.,80.0056047205465,5.,0.,-0.25,0.25,0.,0.,0.;                       161P    133
126,1,1,0,0,1,0,-0.25,-0.25,0.25,0.25,1.,1.,75.0056047205465,5.,     163P    134
5.,75.0056047205465,5.,0.,-0.25,0.25,0.,0.,0.;                       163P    135
126,1,1,0,0,1,0,-0.25,-0.25,0.25,0.25,1.,1.,75.0056047205465,0.,     165P    136
0.,75.0056047205465,5.,0.,-0.25,0.25,0.,0.,0.;                       165P    137
126,1,1,0,0,1,0,-0.25,-0.25,0.25,0.25,1.,1.,75.0056047205465,0.,     167P    138
5.,75.0056047205465,0.,0.,-0.25,0.25,0.,0.,0.;                       167P    139
126,1,1,0,0,1,0,-3.0004024991044,-3.0004024991044,                   169P    140
3.00056047205465,3.00056047205465,1.,1.,14.995975008956,5.,0.,       169P    141
75.0056047205465,5.,0.,-3.0004024991044,3.00056047205465,0.,0.,      169P    142
0.;                                                                  169P    143
126,1,1,0,0,1,0,-0.25,-0.25,0.25,0.25,1.,1.,14.995975008956,5.,      171P    144
0.,14.995975008956,0.,0.,-0.25,0.25,0.,0.,0.;                        171P    145
126,1,1,0,0,1,0,-3.00056047205465,-3.00056047205465,                 173P    146
3.0004024991044,3.0004024991044,1.,1.,75.0056047205465,0.,0.,        173P    147
14.995975008956,0.,0.,-3.00056047205465,3.0004024991044,0.,0.,       173P    148
0.;                                                                  173P    149
126,1,1,0,0,1,0,-4.5,-4.5,-3.50056047205465,-3.50056047205465,       175P    150
1.,1.,90.,0.,0.,80.0056047205465,0.,0.,-4.5,-3.50056047205465,       175P    151
0.,0.,0.;                                                            175P    152
126,1,1,0,0,1,0,-0.25,-0.25,0.25,0.25,1.,1.,90.,5.,0.,90.,0.,0.,     177P    153
-0.25,0.25,0.,0.,0.;                                                 177P    154
126,1,1,0,0,1,0,3.50056047205465,3.50056047205465,4.5,4.5,1.,1.,     179P    155
80.0056047205465,5.,0.,90.,5.,0.,3.50056047205465,4.5,0.,0.,0.;      179P    156
126,1,1,0,0,1,0,-0.25,-0.25,0.25,0.25,1.,1.,9.99597500895604,0.,     181P    157
5.,14.995975008956,0.,5.,-0.25,0.25,0.,0.,0.;                        181P    158
126,1,1,0,0,1,0,-0.25,-0.25,0.25,0.25,1.,1.,14.995975008956,0.,      183P    159
5.,14.995975008956,5.,5.,-0.25,0.25,0.,0.,0.;                        183P    160
126,1,1,0,0,1,0,-0.25,-0.25,0.25,0.25,1.,1.,14.995975008956,5.,      185P    161
5.,9.99597500895604,5.,5.,-0.25,0.25,0.,0.,0.;                       185P    162
126,1,1,0,0,1,0,-0.25,-0.25,0.25,0.25,1.,1.,9.99597500895604,5.,     187P    163
5.,9.99597500895604,0.,5.,-0.25,0.25,0.,0.,0.;                       187P    164
126,1,1,0,0,1,0,-0.25,-0.25,0.25,0.25,1.,1.,9.99597500895604,5.,     189P    165
5.,9.99597500895604,5.,0.,-0.25,0.25,0.,0.,0.;                       189P    166
126,1,1,0,0,1,0,-0.25,-0.25,0.25,0.25,1.,1.,9.99597500895604,0.,     191P    167
0.,9.99597500895604,5.,0.,-0.25,0.25,0.,0.,0.;                       191P    168
126,1,1,0,0,1,0,-0.25,-0.25,0.25,0.25,1.,1.,9.99597500895604,0.,     193P    169
5.,9.99597500895604,0.,0.,-0.25,0.25,0.,0.,0.;                       193P    170
126,1,1,0,0,1,0,-0.25,-0.25,0.25,0.25,1.,1.,14.995975008956,0.,      195P    171
5.,14.995975008956,0.,0.,-0.25,0.25,0.,0.,0.;                        195P    172
126,1,1,0,0,1,0,-0.25,-0.25,0.25,0.25,1.,1.,14.995975008956,5.,      197P    173
5.,14.995975008956,5.,0.,-0.25,0.25,0.,0.,0.;                        197P    174
126,1,1,0,0,1,0,-4.5,-4.5,-3.5004024991044,-3.5004024991044,1.,      199P    175
1.,0.,5.,0.,9.99597500895604,5.,0.,-4.5,-3.5004024991044,0.,0.,      199P    176
0.;                                                                  199P    177
126,1,1,0,0,1,0,-0.25,-0.25,0.25,0.25,1.,1.,0.,5.,0.,0.,0.,0.,       201P    178
-0.25,0.25,0.,0.,0.;                                                 201P    179
126,1,1,0,0,1,0,3.5004024991044,3.5004024991044,4.5,4.5,1.,1.,       203P    180
9.99597500895604,0.,0.,0.,0.,0.,3.5004024991044,4.5,0.,0.,0.;        203P    181
126,1,1,0,0,1,0,-4.,-4.,4.,4.,1.,1.,0.,5.,-80.,0.,5.,0.,-4.,4.,      205P    182
0.,0.,0.;                                                            205P    183
126,1,1,0,0,1,0,-4.,-4.,4.,4.,1.,1.,90.,5.,0.,90.,5.,-80.,-4.,       207P    184
4.,0.,0.,0.;                                                         207P    185
126,1,1,0,0,1,0,-4.,-4.,4.,4.,1.,1.,90.,0.,-80.,90.,0.,0.,-4.,       209P    186
4.,0.,0.,0.;                                                         209P    187
126,1,1,0,0,1,0,-4.,-4.,4.,4.,1.,1.,0.,0.,0.,0.,0.,-80.,-4.,4.,      211P    188
0.,0.,0.;                                                            211P    189
128,1,1,1,1,0,0,1,0,0,-0.251,-0.251,0.251,0.251,-0.251,-0.251,       213P    190
0.251,0.251,1.,1.,1.,1.,75.0018811353465,-0.01,-85.,                 213P    191
75.0018811353465,5.01,-85.,80.0218811353464,-0.01,-85.,              213P    192
80.0218811353465,5.01,-85.,-0.251,0.251,-0.251,0.251;                213P    193
128,1,1,1,1,0,0,1,0,0,-0.251,-0.251,0.251,0.251,-0.251,-0.251,       215P    194
0.251,0.251,1.,1.,1.,1.,75.0118811353465,-0.01,-85.01,               215P    195
75.0118811353465,-0.01,-79.99,75.0118811353465,5.01,-85.01,          215P    196
75.0118811353465,5.01,-79.99,-0.251,0.251,-0.251,0.251;              215P    197
128,1,1,1,1,0,0,1,0,0,-0.251,-0.251,0.251,0.251,-0.251,-0.251,       217P    198
0.251,0.251,1.,1.,1.,1.,80.0118811353465,-0.01,-79.99,               217P    199
80.0118811353465,-0.01,-85.01,80.0118811353465,5.01,-79.99,          217P    200
80.0118811353465,5.01,-85.01,-0.251,0.251,-0.251,0.251;              217P    201
128,1,1,1,1,0,0,1,0,0,-0.251,-0.251,0.251,0.251,-4.501,-4.501,       219P    202
-3.50018811353465,-3.50018811353465,1.,1.,1.,1.,90.01,5.01,-80.,     219P    203
90.01,-0.01,-80.,80.0018811353465,5.01,-80.,80.0018811353465,        219P    204
-0.01,-80.,-0.251,0.251,-4.501,-3.50018811353465;                    219P    205
128,1,1,1,1,0,0,1,0,0,-0.251,-0.251,0.251,0.251,                     221P    206
-3.00218811353465,-3.00218811353465,3.0037430673876,                 221P    207
3.0037430673876,1.,1.,1.,1.,75.0218811353464,5.01,-80.,              221P    208
75.0218811353464,-0.01,-80.,14.962569326124,5.01,-80.,               221P    209
14.962569326124,-0.01,-80.,-0.251,0.251,-3.00218811353465,           221P    210
3.0037430673876;                                                     221P    211
128,1,1,1,1,0,0,1,0,0,-0.251,-0.251,0.251,0.251,-0.251,-0.251,       223P    212
0.251,0.251,1.,1.,1.,1.,14.982569326124,5.01,-85.,                   223P    213
14.982569326124,-0.01,-85.,9.96256932612402,5.01,-85.,               223P    214
9.96256932612402,-0.01,-85.,-0.251,0.251,-0.251,0.251;               223P    215
128,1,1,1,1,0,0,1,0,0,-0.251,-0.251,0.251,0.251,-0.251,-0.251,       225P    216
0.251,0.251,1.,1.,1.,1.,14.972569326124,5.01,-85.01,                 225P    217
14.972569326124,5.01,-79.99,14.972569326124,-0.01,-85.01,            225P    218
14.972569326124,-0.01,-79.99,-0.251,0.251,-0.251,0.251;              225P    219
128,1,1,1,1,0,0,1,0,0,-0.251,-0.251,0.251,0.251,-0.251,-0.251,       227P    220
0.251,0.251,1.,1.,1.,1.,9.97256932612402,5.01,-79.99,                227P    221
9.97256932612402,5.01,-85.01,9.97256932612402,-0.01,-79.99,          227P    222
9.97256932612402,-0.01,-85.01,-0.251,0.251,-0.251,0.251;             227P    223
128,1,1,1,1,0,0,1,0,0,-0.251,-0.251,0.251,0.251,3.5017430673876,     229P    224
3.5017430673876,4.501,4.501,1.,1.,1.,1.,9.98256932612401,5.01,       229P    225
-80.,9.98256932612401,-0.01,-80.,-0.0100000000000033,5.01,-80.,      229P    226
-0.0100000000000033,-0.01,-80.,-0.251,0.251,3.5017430673876,         229P    227
4.501;                                                               229P    228
128,1,1,1,1,0,0,1,0,0,-0.251,-0.251,0.251,0.251,-0.251,-0.251,       231P    229
0.251,0.251,1.,1.,1.,1.,80.0156047205465,-0.01,5.,                   231P    230
80.0156047205465,5.01,5.,74.9956047205465,-0.01,5.,                  231P    231
74.9956047205465,5.01,5.,-0.251,0.251,-0.251,0.251;                  231P    232
128,1,1,1,1,0,0,1,0,0,-0.251,-0.251,0.251,0.251,-0.251,-0.251,       233P    233
0.251,0.251,1.,1.,1.,1.,80.0056047205465,-0.01,5.01,                 233P    234
80.0056047205465,-0.01,-0.01,80.0056047205465,5.01,5.01,             233P    235
80.0056047205465,5.01,-0.01,-0.251,0.251,-0.251,0.251;               233P    236
128,1,1,1,1,0,0,1,0,0,-0.251,-0.251,0.251,0.251,-0.251,-0.251,       235P    237
0.251,0.251,1.,1.,1.,1.,75.0056047205465,-0.01,-0.01,                235P    238
75.0056047205465,-0.01,5.01,75.0056047205465,5.01,-0.01,             235P    239
75.0056047205465,5.01,5.01,-0.251,0.251,-0.251,0.251;                235P    240
128,1,1,1,1,0,0,1,0,0,-0.251,-0.251,0.251,0.251,                     237P    241
-3.00156047205465,-3.00156047205465,3.0014024991044,                 237P    242
3.0014024991044,1.,1.,1.,1.,75.0156047205465,-0.01,0.,               237P    243
75.0156047205465,5.01,0.,14.985975008956,-0.01,0.,                   237P    244
14.985975008956,5.01,0.,-0.251,0.251,-3.00156047205465,              237P    245
3.0014024991044;                                                     237P    246
128,1,1,1,1,0,0,1,0,0,-0.251,-0.251,0.251,0.251,-4.501,-4.501,       239P    247
-3.49956047205465,-3.49956047205465,1.,1.,1.,1.,90.01,-0.01,0.,      239P    248
90.01,5.01,0.,79.9956047205465,-0.01,0.,79.9956047205465,5.01,       239P    249
0.,-0.251,0.251,-4.501,-3.49956047205465;                            239P    250
128,1,1,1,1,0,0,1,0,0,-0.251,-0.251,0.251,0.251,-0.251,-0.251,       241P    251
0.251,0.251,1.,1.,1.,1.,9.98597500895604,5.01,5.,                    241P    252
9.98597500895604,-0.01,5.,15.005975008956,5.01,5.,                   241P    253
15.005975008956,-0.01,5.,-0.251,0.251,-0.251,0.251;                  241P    254
128,1,1,1,1,0,0,1,0,0,-0.251,-0.251,0.251,0.251,-0.251,-0.251,       243P    255
0.251,0.251,1.,1.,1.,1.,9.99597500895604,5.01,5.01,                  243P    256
9.99597500895604,5.01,-0.01,9.99597500895604,-0.01,5.01,             243P    257
9.99597500895604,-0.01,-0.01,-0.251,0.251,-0.251,0.251;              243P    258
128,1,1,1,1,0,0,1,0,0,-0.251,-0.251,0.251,0.251,-0.251,-0.251,       245P    259
0.251,0.251,1.,1.,1.,1.,14.995975008956,5.01,-0.01,                  245P    260
14.995975008956,5.01,5.01,14.995975008956,-0.01,-0.01,               245P    261
14.995975008956,-0.01,5.01,-0.251,0.251,-0.251,0.251;                245P    262
128,1,1,1,1,0,0,1,0,0,-0.251,-0.251,0.251,0.251,3.4994024991044,     247P    263
3.4994024991044,4.501,4.501,1.,1.,1.,1.,10.005975008956,-0.01,       247P    264
0.,10.005975008956,5.01,0.,-0.0100000000000033,-0.01,0.,             247P    265
-0.0100000000000033,5.01,0.,-0.251,0.251,3.4994024991044,4.501;      247P    266
128,1,1,1,1,0,0,1,0,0,-4.501,-4.501,4.501,4.501,-4.501,-4.501,       249P    267
4.501,4.501,1.,1.,1.,1.,90.01,5.,5.01,90.01,5.,-85.01,               249P    268
-0.0100000000000033,5.,5.01,-0.0100000000000122,5.,-85.01,           249P    269
-4.501,4.501,-4.501,4.501;                                           249P    270
128,1,1,1,1,0,0,1,0,0,-4.501,-4.501,4.501,4.501,-4.501,-4.501,       251P    271
4.501,4.501,1.,1.,1.,1.,90.01,0.,-85.01,90.01,0.,5.01,               251P    272
-0.0100000000000122,0.,-85.01,-0.0100000000000033,0.,5.01,           251P    273
-4.501,4.501,-4.501,4.501;                                           251P    274
128,1,1,1,1,0,0,1,0,0,-0.251,-0.251,0.251,0.251,-4.001,-4.001,       253P    275
4.001,4.001,1.,1.,1.,1.,90.,5.01,0.0100000000000033,90.,-0.01,       253P    276
0.0100000000000033,90.,5.01,-80.01,90.,-0.01,-80.01,-0.251,          253P    277
0.251,-4.001,4.001;                                                  253P    278
128,1,1,1,1,0,0,1,0,0,-0.251,-0.251,0.251,0.251,-4.001,-4.001,       255P    279
4.001,4.001,1.,1.,1.,1.,0.,-0.01,0.0100000000000033,0.,5.01,         255P    280
0.0100000000000033,0.,-0.01,-80.01,0.,5.01,-80.01,-0.251,0.251,      255P    281
-4.001,4.001;                                                        255P    282
502,40,75.0118811353465,5.,-85.,80.0118811353465,5.,-85.,            257P    283
80.0118811353465,0.,-85.,75.0118811353465,0.,-85.,                   257P    284
75.0118811353465,0.,-80.,75.0118811353465,5.,-80.,                   257P    285
80.0118811353465,5.,-80.,80.0118811353465,0.,-80.,90.,5.,-80.,       257P    286
90.,0.,-80.,14.972569326124,0.,-80.,14.972569326124,5.,-80.,         257P    287
14.972569326124,0.,-85.,9.97256932612402,0.,-85.,                    257P    288
9.97256932612402,5.,-85.,14.972569326124,5.,-85.,                    257P    289
9.97256932612402,0.,-80.,9.97256932612402,5.,-80.,0.,0.,-80.,0.,     257P    290
5.,-80.,80.0056047205465,5.,5.,75.0056047205465,5.,5.,               257P    291
75.0056047205465,0.,5.,80.0056047205465,0.,5.,80.0056047205465,      257P    292
0.,0.,80.0056047205465,5.,0.,75.0056047205465,5.,0.,                 257P    293
75.0056047205465,0.,0.,14.995975008956,5.,0.,14.995975008956,0.,     257P    294
0.,90.,0.,0.,90.,5.,0.,9.99597500895604,0.,5.,14.995975008956,       257P    295
0.,5.,14.995975008956,5.,5.,9.99597500895604,5.,5.,                  257P    296
9.99597500895604,5.,0.,9.99597500895604,0.,0.,0.,5.,0.,0.,0.,0.;     257P    297
504,60,93,257,1,257,2,95,257,2,257,3,97,257,3,257,4,99,257,4,        259P    298
257,1,101,257,4,257,5,103,257,6,257,5,105,257,1,257,6,107,257,2,     259P    299
257,7,109,257,8,257,7,111,257,3,257,8,113,257,9,257,7,115,257,9,     259P    300
257,10,117,257,8,257,10,119,257,11,257,5,121,257,11,257,12,123,      259P    301
257,6,257,12,125,257,13,257,14,127,257,14,257,15,129,257,15,257,     259P    302
16,131,257,16,257,13,133,257,16,257,12,135,257,13,257,11,137,        259P    303
257,14,257,17,139,257,18,257,17,141,257,15,257,18,143,257,19,        259P    304
257,17,145,257,20,257,19,147,257,18,257,20,149,257,21,257,22,        259P    305
151,257,22,257,23,153,257,23,257,24,155,257,24,257,21,157,257,       259P    306
24,257,25,159,257,26,257,25,161,257,21,257,26,163,257,22,257,27,     259P    307
165,257,28,257,27,167,257,23,257,28,169,257,29,257,27,171,257,       259P    308
29,257,30,173,257,28,257,30,175,257,31,257,25,177,257,32,257,31,     259P    309
179,257,26,257,32,181,257,33,257,34,183,257,34,257,35,185,257,       259P    310
35,257,36,187,257,36,257,33,189,257,36,257,37,191,257,38,257,37,     259P    311
193,257,33,257,38,195,257,34,257,30,197,257,35,257,29,199,257,       259P    312
39,257,37,201,257,39,257,40,203,257,38,257,40,205,257,20,257,39,     259P    313
207,257,32,257,9,209,257,10,257,31,211,257,40,257,19;                259P    314
406,1,5HBody4;                                                       261P    315
314,62.7450980392157,62.7450980392157,62.7450980392157,13HSteel      263P    316
- Satin;                                                             263P    317
S      1G      2D    264P    317                                        T      1
